999
"DXF R12 Output" (www.mydxf.blogspot.com)
 0 
SECTION
 2 
HEADER
 9 
$ACADVER
 1 
AC1009
 9 
$EXTMIN
 10 
 0 
 20 
 0 
 9 
$EXTMAX
 10 
 8.5 
 20 
 11 
 0 
ENDSEC
 0 
SECTION
 2 
ENTITIES
0
LINE
8
Layer 1
10
0.793749
20
297.794000
11
-0.793749
21
296.206000
0
LINE
8
Layer 1
10
0.000000
20
298.323000
11
0.000000
21
295.677000
0
LINE
8
Layer 1
10
2.116660
20
295.942000
11
1.058330
21
294.883670
0
LINE
8
Layer 1
10
1.587500
20
296.471000
11
0.529170
21
295.412670
0
LINE
8
Layer 1
10
1.058330
20
297.000000
11
0.000000
21
295.941670
0
LINE
8
Layer 1
10
421.634000
20
178.920000
11
252.804000
21
153.687000
0
LINE
8
Layer 1
10
252.804000
20
153.687000
11
19.762600
21
176.127000
0
LINE
8
Layer 1
10
19.762600
20
176.127000
11
6.527240
21
38.633200
0
LINE
8
Layer 1
10
6.527240
20
38.633200
11
184.204000
21
21.505500
0
LINE
8
Layer 1
10
184.204000
20
21.505500
11
302.691000
21
21.505500
0
LINE
8
Layer 1
10
302.691000
20
21.505500
11
442.047000
21
42.329600
0
LINE
8
Layer 1
10
442.047000
20
42.329600
11
421.634000
21
178.920000
0
LINE
8
Layer 1
10
421.634000
20
178.920000
11
421.634000
21
178.920000
0
LINE
8
Layer 1
10
411.495000
20
165.220000
11
413.564000
21
151.374000
0
LINE
8
Layer 1
10
413.564000
20
151.374000
11
399.721000
21
149.306000
0
LINE
8
Layer 1
10
399.721000
20
149.306000
11
397.650000
21
163.152000
0
LINE
8
Layer 1
10
397.650000
20
163.152000
11
411.495000
21
165.220000
0
LINE
8
Layer 1
10
411.495000
20
165.220000
11
411.495000
21
165.220000
0
LINE
8
Layer 1
10
30.601700
20
162.978000
11
44.537300
21
161.635000
0
LINE
8
Layer 1
10
44.537300
20
161.635000
11
43.194200
21
147.700000
0
LINE
8
Layer 1
10
43.194200
20
147.700000
11
29.259700
21
149.042000
0
LINE
8
Layer 1
10
29.259700
20
149.042000
11
30.601700
21
162.978000
0
LINE
8
Layer 1
10
30.601700
20
162.978000
11
30.601700
21
162.978000
0
LINE
8
Layer 1
10
392.656000
20
162.406000
11
394.723000
21
148.559000
0
LINE
8
Layer 1
10
394.723000
20
148.559000
11
380.878000
21
146.489000
0
LINE
8
Layer 1
10
380.878000
20
146.489000
11
378.809000
21
160.334000
0
LINE
8
Layer 1
10
378.809000
20
160.334000
11
392.656000
21
162.406000
0
LINE
8
Layer 1
10
392.656000
20
162.406000
11
392.656000
21
162.406000
0
LINE
8
Layer 1
10
49.563800
20
161.152000
11
63.499400
21
159.810000
0
LINE
8
Layer 1
10
63.499400
20
159.810000
11
62.157900
21
145.873000
0
LINE
8
Layer 1
10
62.157900
20
145.873000
11
48.221800
21
147.216000
0
LINE
8
Layer 1
10
48.221800
20
147.216000
11
49.563800
21
161.152000
0
LINE
8
Layer 1
10
49.563800
20
161.152000
11
49.563800
21
161.152000
0
LINE
8
Layer 1
10
68.526500
20
159.326000
11
82.462600
21
157.984000
0
LINE
8
Layer 1
10
82.462600
20
157.984000
11
81.119500
21
144.048000
0
LINE
8
Layer 1
10
81.119500
20
144.048000
11
67.185000
21
145.390000
0
LINE
8
Layer 1
10
67.185000
20
145.390000
11
68.526500
21
159.326000
0
LINE
8
Layer 1
10
68.526500
20
159.326000
11
68.526500
21
159.326000
0
LINE
8
Layer 1
10
369.107000
20
158.886000
11
371.170000
21
145.038000
0
LINE
8
Layer 1
10
371.170000
20
145.038000
11
357.327000
21
142.970000
0
LINE
8
Layer 1
10
357.327000
20
142.970000
11
355.258000
21
156.817000
0
LINE
8
Layer 1
10
355.258000
20
156.817000
11
369.107000
21
158.886000
0
LINE
8
Layer 1
10
369.107000
20
158.886000
11
369.107000
21
158.886000
0
LINE
8
Layer 1
10
87.489100
20
157.500000
11
101.423000
21
156.159000
0
LINE
8
Layer 1
10
101.423000
20
156.159000
11
100.083000
21
142.223000
0
LINE
8
Layer 1
10
100.083000
20
142.223000
11
86.147100
21
143.564000
0
LINE
8
Layer 1
10
86.147100
20
143.564000
11
87.489100
21
157.500000
0
LINE
8
Layer 1
10
87.489100
20
157.500000
11
87.489100
21
157.500000
0
LINE
8
Layer 1
10
350.266000
20
156.068000
11
352.329000
21
142.223000
0
LINE
8
Layer 1
10
352.329000
20
142.223000
11
338.486000
21
140.154000
0
LINE
8
Layer 1
10
338.486000
20
140.154000
11
336.416000
21
154.000000
0
LINE
8
Layer 1
10
336.416000
20
154.000000
11
350.266000
21
156.068000
0
LINE
8
Layer 1
10
350.266000
20
156.068000
11
350.266000
21
156.068000
0
LINE
8
Layer 1
10
111.190000
20
155.218000
11
125.127000
21
153.876000
0
LINE
8
Layer 1
10
125.127000
20
153.876000
11
123.786000
21
139.941000
0
LINE
8
Layer 1
10
123.786000
20
139.941000
11
109.849000
21
141.283000
0
LINE
8
Layer 1
10
109.849000
20
141.283000
11
111.190000
21
155.218000
0
LINE
8
Layer 1
10
111.190000
20
155.218000
11
111.190000
21
155.218000
0
LINE
8
Layer 1
10
331.422000
20
153.253000
11
333.492000
21
139.407000
0
LINE
8
Layer 1
10
333.492000
20
139.407000
11
319.645000
21
137.337000
0
LINE
8
Layer 1
10
319.645000
20
137.337000
11
317.573000
21
151.185000
0
LINE
8
Layer 1
10
317.573000
20
151.185000
11
331.422000
21
153.253000
0
LINE
8
Layer 1
10
331.422000
20
153.253000
11
331.422000
21
153.253000
0
LINE
8
Layer 1
10
134.894000
20
152.935000
11
148.831000
21
151.595000
0
LINE
8
Layer 1
10
148.831000
20
151.595000
11
147.487000
21
137.659000
0
LINE
8
Layer 1
10
147.487000
20
137.659000
11
133.553000
21
139.001000
0
LINE
8
Layer 1
10
133.553000
20
139.001000
11
134.894000
21
152.935000
0
LINE
8
Layer 1
10
134.894000
20
152.935000
11
134.894000
21
152.935000
0
LINE
8
Layer 1
10
153.857000
20
151.110000
11
167.791000
21
149.767000
0
LINE
8
Layer 1
10
167.791000
20
149.767000
11
166.451000
21
135.833000
0
LINE
8
Layer 1
10
166.451000
20
135.833000
11
152.515000
21
137.173000
0
LINE
8
Layer 1
10
152.515000
20
137.173000
11
153.857000
21
151.110000
0
LINE
8
Layer 1
10
153.857000
20
151.110000
11
153.857000
21
151.110000
0
LINE
8
Layer 1
10
312.584000
20
150.438000
11
314.651000
21
136.591000
0
LINE
8
Layer 1
10
314.651000
20
136.591000
11
300.805000
21
134.523000
0
LINE
8
Layer 1
10
300.805000
20
134.523000
11
298.734000
21
148.369000
0
LINE
8
Layer 1
10
298.734000
20
148.369000
11
312.584000
21
150.438000
0
LINE
8
Layer 1
10
312.584000
20
150.438000
11
312.584000
21
150.438000
0
LINE
8
Layer 1
10
172.819000
20
149.283000
11
186.754000
21
147.942000
0
LINE
8
Layer 1
10
186.754000
20
147.942000
11
185.413000
21
134.007000
0
LINE
8
Layer 1
10
185.413000
20
134.007000
11
171.477000
21
135.348000
0
LINE
8
Layer 1
10
171.477000
20
135.348000
11
172.819000
21
149.283000
0
LINE
8
Layer 1
10
172.819000
20
149.283000
11
172.819000
21
149.283000
0
LINE
8
Layer 1
10
191.781000
20
147.457000
11
205.717000
21
146.117000
0
LINE
8
Layer 1
10
205.717000
20
146.117000
11
204.374000
21
132.182000
0
LINE
8
Layer 1
10
204.374000
20
132.182000
11
190.440000
21
133.523000
0
LINE
8
Layer 1
10
190.440000
20
133.523000
11
191.781000
21
147.457000
0
LINE
8
Layer 1
10
191.781000
20
147.457000
11
191.781000
21
147.457000
0
LINE
8
Layer 1
10
289.031000
20
146.918000
11
291.100000
21
133.071000
0
LINE
8
Layer 1
10
291.100000
20
133.071000
11
277.254000
21
131.003000
0
LINE
8
Layer 1
10
277.254000
20
131.003000
11
275.185000
21
144.848000
0
LINE
8
Layer 1
10
275.185000
20
144.848000
11
289.031000
21
146.918000
0
LINE
8
Layer 1
10
289.031000
20
146.918000
11
289.031000
21
146.918000
0
LINE
8
Layer 1
10
215.484000
20
145.175000
11
229.420000
21
143.833000
0
LINE
8
Layer 1
10
229.420000
20
143.833000
11
228.077000
21
129.897000
0
LINE
8
Layer 1
10
228.077000
20
129.897000
11
214.142000
21
131.241000
0
LINE
8
Layer 1
10
214.142000
20
131.241000
11
215.484000
21
145.175000
0
LINE
8
Layer 1
10
215.484000
20
145.175000
11
215.484000
21
145.175000
0
LINE
8
Layer 1
10
270.189000
20
144.102000
11
272.258000
21
130.256000
0
LINE
8
Layer 1
10
272.258000
20
130.256000
11
258.413000
21
128.187000
0
LINE
8
Layer 1
10
258.413000
20
128.187000
11
256.343000
21
142.033000
0
LINE
8
Layer 1
10
256.343000
20
142.033000
11
270.189000
21
144.102000
0
LINE
8
Layer 1
10
270.189000
20
144.102000
11
270.189000
21
144.102000
0
LINE
8
Layer 1
10
234.445000
20
143.350000
11
248.382000
21
142.008000
0
LINE
8
Layer 1
10
248.382000
20
142.008000
11
247.040000
21
128.072000
0
LINE
8
Layer 1
10
247.040000
20
128.072000
11
233.104000
21
129.415000
0
LINE
8
Layer 1
10
233.104000
20
129.415000
11
234.445000
21
143.350000
0
LINE
8
Layer 1
10
234.445000
20
143.350000
11
234.445000
21
143.350000
0
LINE
8
Layer 1
10
415.014000
20
141.669000
11
417.084000
21
127.823000
0
LINE
8
Layer 1
10
417.084000
20
127.823000
11
403.238000
21
125.754000
0
LINE
8
Layer 1
10
403.238000
20
125.754000
11
401.169000
21
139.601000
0
LINE
8
Layer 1
10
401.169000
20
139.601000
11
415.014000
21
141.669000
0
LINE
8
Layer 1
10
415.014000
20
141.669000
11
415.014000
21
141.669000
0
LINE
8
Layer 1
10
28.319700
20
139.275000
11
42.254200
21
137.933000
0
LINE
8
Layer 1
10
42.254200
20
137.933000
11
40.913700
21
123.998000
0
LINE
8
Layer 1
10
40.913700
20
123.998000
11
26.978200
21
125.340000
0
LINE
8
Layer 1
10
26.978200
20
125.340000
11
28.319700
21
139.275000
0
LINE
8
Layer 1
10
28.319700
20
139.275000
11
28.319700
21
139.275000
0
LINE
8
Layer 1
10
47.281300
20
137.450000
11
61.217400
21
136.107000
0
LINE
8
Layer 1
10
61.217400
20
136.107000
11
59.875900
21
122.172000
0
LINE
8
Layer 1
10
59.875900
20
122.172000
11
45.939800
21
123.514000
0
LINE
8
Layer 1
10
45.939800
20
123.514000
11
47.281300
21
137.450000
0
LINE
8
Layer 1
10
47.281300
20
137.450000
11
47.281300
21
137.450000
0
LINE
8
Layer 1
10
386.757000
20
137.447000
11
387.447000
21
132.798000
0
LINE
8
Layer 1
10
387.447000
20
132.798000
11
388.956000
21
133.023000
0
LINE
8
Layer 1
10
388.956000
20
133.023000
11
388.482000
21
136.217000
0
LINE
8
Layer 1
10
388.482000
20
136.217000
11
395.157000
21
137.215000
0
LINE
8
Layer 1
10
395.157000
20
137.215000
11
395.634000
21
134.020000
0
LINE
8
Layer 1
10
395.634000
20
134.020000
11
396.451000
21
134.143000
0
LINE
8
Layer 1
10
396.451000
20
134.143000
11
396.864000
21
131.373000
0
LINE
8
Layer 1
10
396.864000
20
131.373000
11
396.044000
21
131.252000
0
LINE
8
Layer 1
10
396.044000
20
131.252000
11
396.975000
21
125.049000
0
LINE
8
Layer 1
10
396.975000
20
125.049000
11
395.271000
21
124.796000
0
LINE
8
Layer 1
10
395.271000
20
124.796000
11
395.445000
21
123.610000
0
LINE
8
Layer 1
10
395.445000
20
123.610000
11
392.183000
21
123.121000
0
LINE
8
Layer 1
10
392.183000
20
123.121000
11
392.003000
21
124.308000
0
LINE
8
Layer 1
10
392.003000
20
124.308000
11
390.297000
21
124.054000
0
LINE
8
Layer 1
10
390.297000
20
124.054000
11
389.639000
21
128.474000
0
LINE
8
Layer 1
10
389.639000
20
128.474000
11
388.127000
21
128.248000
0
LINE
8
Layer 1
10
388.127000
20
128.248000
11
388.823000
21
123.601000
0
LINE
8
Layer 1
10
388.823000
20
123.601000
11
374.978000
21
121.531000
0
LINE
8
Layer 1
10
374.978000
20
121.531000
11
374.284000
21
126.178000
0
LINE
8
Layer 1
10
374.284000
20
126.178000
11
372.775000
21
125.953000
0
LINE
8
Layer 1
10
372.775000
20
125.953000
11
373.435000
21
121.533000
0
LINE
8
Layer 1
10
373.435000
20
121.533000
11
371.731000
21
121.279000
0
LINE
8
Layer 1
10
371.731000
20
121.279000
11
371.909000
21
120.091000
0
LINE
8
Layer 1
10
371.909000
20
120.091000
11
368.641000
21
119.603000
0
LINE
8
Layer 1
10
368.641000
20
119.603000
11
368.465000
21
120.790000
0
LINE
8
Layer 1
10
368.465000
20
120.790000
11
366.760000
21
120.536000
0
LINE
8
Layer 1
10
366.760000
20
120.536000
11
365.831000
21
126.735000
0
LINE
8
Layer 1
10
365.831000
20
126.735000
11
365.016000
21
126.614000
0
LINE
8
Layer 1
10
365.016000
20
126.614000
11
364.603000
21
129.382000
0
LINE
8
Layer 1
10
364.603000
20
129.382000
11
365.420000
21
129.505000
0
LINE
8
Layer 1
10
365.420000
20
129.505000
11
364.940000
21
132.701000
0
LINE
8
Layer 1
10
364.940000
20
132.701000
11
371.617000
21
133.698000
0
LINE
8
Layer 1
10
371.617000
20
133.698000
11
372.095000
21
130.503000
0
LINE
8
Layer 1
10
372.095000
20
130.503000
11
373.602000
21
130.728000
0
LINE
8
Layer 1
10
373.602000
20
130.728000
11
372.906000
21
135.377000
0
LINE
8
Layer 1
10
372.906000
20
135.377000
11
386.757000
21
137.447000
0
LINE
8
Layer 1
10
386.757000
20
137.447000
11
386.757000
21
137.447000
0
LINE
8
Layer 1
10
66.243400
20
135.622000
11
80.179500
21
134.281000
0
LINE
8
Layer 1
10
80.179500
20
134.281000
11
78.837500
21
120.346000
0
LINE
8
Layer 1
10
78.837500
20
120.346000
11
64.901400
21
121.688000
0
LINE
8
Layer 1
10
64.901400
20
121.688000
11
66.243400
21
135.622000
0
LINE
8
Layer 1
10
66.243400
20
135.622000
11
66.243400
21
135.622000
0
LINE
8
Layer 1
10
85.206600
20
133.797000
11
99.141100
21
132.456000
0
LINE
8
Layer 1
10
99.141100
20
132.456000
11
97.799600
21
118.519000
0
LINE
8
Layer 1
10
97.799600
20
118.519000
11
83.864500
21
119.862000
0
LINE
8
Layer 1
10
83.864500
20
119.862000
11
85.206600
21
133.797000
0
LINE
8
Layer 1
10
85.206600
20
133.797000
11
85.206600
21
133.797000
0
LINE
8
Layer 1
10
358.491000
20
133.223000
11
360.560000
21
119.379000
0
LINE
8
Layer 1
10
360.560000
20
119.379000
11
346.717000
21
117.306000
0
LINE
8
Layer 1
10
346.717000
20
117.306000
11
344.646000
21
131.153000
0
LINE
8
Layer 1
10
344.646000
20
131.153000
11
358.491000
21
133.223000
0
LINE
8
Layer 1
10
358.491000
20
133.223000
11
358.491000
21
133.223000
0
LINE
8
Layer 1
10
108.909000
20
131.515000
11
122.844000
21
130.173000
0
LINE
8
Layer 1
10
122.844000
20
130.173000
11
121.504000
21
116.237000
0
LINE
8
Layer 1
10
121.504000
20
116.237000
11
107.567000
21
117.580000
0
LINE
8
Layer 1
10
107.567000
20
117.580000
11
108.909000
21
131.515000
0
LINE
8
Layer 1
10
108.909000
20
131.515000
11
108.909000
21
131.515000
0
LINE
8
Layer 1
10
339.651000
20
130.407000
11
341.722000
21
116.560000
0
LINE
8
Layer 1
10
341.722000
20
116.560000
11
327.877000
21
114.490000
0
LINE
8
Layer 1
10
327.877000
20
114.490000
11
325.805000
21
128.338000
0
LINE
8
Layer 1
10
325.805000
20
128.338000
11
339.651000
21
130.407000
0
LINE
8
Layer 1
10
339.651000
20
130.407000
11
339.651000
21
130.407000
0
LINE
8
Layer 1
10
127.871000
20
129.690000
11
141.805000
21
128.347000
0
LINE
8
Layer 1
10
141.805000
20
128.347000
11
140.465000
21
114.412000
0
LINE
8
Layer 1
10
140.465000
20
114.412000
11
126.529000
21
115.752000
0
LINE
8
Layer 1
10
126.529000
20
115.752000
11
127.871000
21
129.690000
0
LINE
8
Layer 1
10
127.871000
20
129.690000
11
127.871000
21
129.690000
0
LINE
8
Layer 1
10
146.833000
20
127.864000
11
160.769000
21
126.520000
0
LINE
8
Layer 1
10
160.769000
20
126.520000
11
159.426000
21
112.586000
0
LINE
8
Layer 1
10
159.426000
20
112.586000
11
145.492000
21
113.927000
0
LINE
8
Layer 1
10
145.492000
20
113.927000
11
146.833000
21
127.864000
0
LINE
8
Layer 1
10
146.833000
20
127.864000
11
146.833000
21
127.864000
0
LINE
8
Layer 1
10
320.814000
20
127.591000
11
322.881000
21
113.745000
0
LINE
8
Layer 1
10
322.881000
20
113.745000
11
309.036000
21
111.676000
0
LINE
8
Layer 1
10
309.036000
20
111.676000
11
306.964000
21
125.521000
0
LINE
8
Layer 1
10
306.964000
20
125.521000
11
320.814000
21
127.591000
0
LINE
8
Layer 1
10
320.814000
20
127.591000
11
320.814000
21
127.591000
0
LINE
8
Layer 1
10
165.797000
20
126.038000
11
179.730000
21
124.696000
0
LINE
8
Layer 1
10
179.730000
20
124.696000
11
178.390000
21
110.761000
0
LINE
8
Layer 1
10
178.390000
20
110.761000
11
164.454000
21
112.102000
0
LINE
8
Layer 1
10
164.454000
20
112.102000
11
165.797000
21
126.038000
0
LINE
8
Layer 1
10
165.797000
20
126.038000
11
165.797000
21
126.038000
0
LINE
8
Layer 1
10
301.969000
20
124.775000
11
304.041000
21
110.930000
0
LINE
8
Layer 1
10
304.041000
20
110.930000
11
290.195000
21
108.860000
0
LINE
8
Layer 1
10
290.195000
20
108.860000
11
288.126000
21
122.705000
0
LINE
8
Layer 1
10
288.126000
20
122.705000
11
301.969000
21
124.775000
0
LINE
8
Layer 1
10
301.969000
20
124.775000
11
301.969000
21
124.775000
0
LINE
8
Layer 1
10
184.758000
20
124.211000
11
198.694000
21
122.870000
0
LINE
8
Layer 1
10
198.694000
20
122.870000
11
197.352000
21
108.934000
0
LINE
8
Layer 1
10
197.352000
20
108.934000
11
183.416000
21
110.277000
0
LINE
8
Layer 1
10
183.416000
20
110.277000
11
184.758000
21
124.211000
0
LINE
8
Layer 1
10
184.758000
20
124.211000
11
184.758000
21
124.211000
0
LINE
8
Layer 1
10
417.829000
20
122.828000
11
419.901000
21
108.984000
0
LINE
8
Layer 1
10
419.901000
20
108.984000
11
406.055000
21
106.913000
0
LINE
8
Layer 1
10
406.055000
20
106.913000
11
403.984000
21
120.760000
0
LINE
8
Layer 1
10
403.984000
20
120.760000
11
417.829000
21
122.828000
0
LINE
8
Layer 1
10
417.829000
20
122.828000
11
417.829000
21
122.828000
0
LINE
8
Layer 1
10
203.720000
20
122.387000
11
217.656000
21
121.044000
0
LINE
8
Layer 1
10
217.656000
20
121.044000
11
216.315000
21
107.110000
0
LINE
8
Layer 1
10
216.315000
20
107.110000
11
202.378000
21
108.449000
0
LINE
8
Layer 1
10
202.378000
20
108.449000
11
203.720000
21
122.387000
0
LINE
8
Layer 1
10
203.720000
20
122.387000
11
203.720000
21
122.387000
0
LINE
8
Layer 1
10
283.132000
20
121.959000
11
285.199000
21
108.114000
0
LINE
8
Layer 1
10
285.199000
20
108.114000
11
271.354000
21
106.044000
0
LINE
8
Layer 1
10
271.354000
20
106.044000
11
269.285000
21
119.890000
0
LINE
8
Layer 1
10
269.285000
20
119.890000
11
283.132000
21
121.959000
0
LINE
8
Layer 1
10
283.132000
20
121.959000
11
283.132000
21
121.959000
0
LINE
8
Layer 1
10
222.684000
20
120.560000
11
236.617000
21
119.217000
0
LINE
8
Layer 1
10
236.617000
20
119.217000
11
235.277000
21
105.283000
0
LINE
8
Layer 1
10
235.277000
20
105.283000
11
221.342000
21
106.625000
0
LINE
8
Layer 1
10
221.342000
20
106.625000
11
222.684000
21
120.560000
0
LINE
8
Layer 1
10
222.684000
20
120.560000
11
222.684000
21
120.560000
0
LINE
8
Layer 1
10
26.494000
20
120.313000
11
40.428500
21
118.970000
0
LINE
8
Layer 1
10
40.428500
20
118.970000
11
39.088000
21
105.036000
0
LINE
8
Layer 1
10
39.088000
20
105.036000
11
25.151900
21
106.378000
0
LINE
8
Layer 1
10
25.151900
20
106.378000
11
26.494000
21
120.313000
0
LINE
8
Layer 1
10
26.494000
20
120.313000
11
26.494000
21
120.313000
0
LINE
8
Layer 1
10
394.280000
20
119.310000
11
396.349000
21
105.464000
0
LINE
8
Layer 1
10
396.349000
20
105.464000
11
382.505000
21
103.394000
0
LINE
8
Layer 1
10
382.505000
20
103.394000
11
380.431000
21
117.240000
0
LINE
8
Layer 1
10
380.431000
20
117.240000
11
394.280000
21
119.310000
0
LINE
8
Layer 1
10
394.280000
20
119.310000
11
394.280000
21
119.310000
0
LINE
8
Layer 1
10
264.289000
20
119.144000
11
266.359000
21
105.297000
0
LINE
8
Layer 1
10
266.359000
20
105.297000
11
252.513000
21
103.229000
0
LINE
8
Layer 1
10
252.513000
20
103.229000
11
250.443000
21
117.074000
0
LINE
8
Layer 1
10
250.443000
20
117.074000
11
264.289000
21
119.144000
0
LINE
8
Layer 1
10
264.289000
20
119.144000
11
264.289000
21
119.144000
0
LINE
8
Layer 1
10
45.455600
20
118.486000
11
59.391600
21
117.145000
0
LINE
8
Layer 1
10
59.391600
20
117.145000
11
58.050100
21
103.208000
0
LINE
8
Layer 1
10
58.050100
20
103.208000
11
44.114000
21
104.552000
0
LINE
8
Layer 1
10
44.114000
20
104.552000
11
45.455600
21
118.486000
0
LINE
8
Layer 1
10
45.455600
20
118.486000
11
45.455600
21
118.486000
0
LINE
8
Layer 1
10
64.417700
20
116.662000
11
78.353800
21
115.319000
0
LINE
8
Layer 1
10
78.353800
20
115.319000
11
77.011700
21
101.385000
0
LINE
8
Layer 1
10
77.011700
20
101.385000
11
63.077200
21
102.725000
0
LINE
8
Layer 1
10
63.077200
20
102.725000
11
64.417700
21
116.662000
0
LINE
8
Layer 1
10
64.417700
20
116.662000
11
64.417700
21
116.662000
0
LINE
8
Layer 1
10
370.731000
20
115.790000
11
372.800000
21
101.944000
0
LINE
8
Layer 1
10
372.800000
20
101.944000
11
358.952000
21
99.874300
0
LINE
8
Layer 1
10
358.952000
20
99.874300
11
356.882000
21
113.719000
0
LINE
8
Layer 1
10
356.882000
20
113.719000
11
370.731000
21
115.790000
0
LINE
8
Layer 1
10
370.731000
20
115.790000
11
370.731000
21
115.790000
0
LINE
8
Layer 1
10
89.809400
20
113.790000
11
92.595800
21
113.521000
0
LINE
8
Layer 1
10
92.595800
20
113.521000
11
92.517200
21
112.701000
0
LINE
8
Layer 1
10
92.517200
20
112.701000
11
95.731000
21
112.391000
0
LINE
8
Layer 1
10
95.731000
20
112.391000
11
95.085000
21
105.673000
0
LINE
8
Layer 1
10
95.085000
20
105.673000
11
91.868700
21
105.982000
0
LINE
8
Layer 1
10
91.868700
20
105.982000
11
91.723500
21
104.463000
0
LINE
8
Layer 1
10
91.723500
20
104.463000
11
96.401700
21
104.013000
0
LINE
8
Layer 1
10
96.401700
20
104.013000
11
95.060200
21
90.078000
0
LINE
8
Layer 1
10
95.060200
20
90.078000
11
90.379900
21
90.529100
0
LINE
8
Layer 1
10
90.379900
20
90.529100
11
90.235200
21
89.009300
0
LINE
8
Layer 1
10
90.235200
20
89.009300
11
93.449500
21
88.699800
0
LINE
8
Layer 1
10
93.449500
20
88.699800
11
92.803000
21
81.981400
0
LINE
8
Layer 1
10
92.803000
20
81.981400
11
89.588200
21
82.291400
0
LINE
8
Layer 1
10
89.588200
20
82.291400
11
89.508600
21
81.470300
0
LINE
8
Layer 1
10
89.508600
20
81.470300
11
86.722200
21
81.738000
0
LINE
8
Layer 1
10
86.722200
20
81.738000
11
86.800300
21
82.560100
0
LINE
8
Layer 1
10
86.800300
20
82.560100
11
80.559300
21
83.160100
0
LINE
8
Layer 1
10
80.559300
20
83.160100
11
80.726200
21
84.878800
0
LINE
8
Layer 1
10
80.726200
20
84.878800
11
79.530400
21
84.992500
0
LINE
8
Layer 1
10
79.530400
20
84.992500
11
79.846700
21
88.278100
0
LINE
8
Layer 1
10
79.846700
20
88.278100
11
81.042500
21
88.162900
0
LINE
8
Layer 1
10
81.042500
20
88.162900
11
81.207900
21
89.880100
0
LINE
8
Layer 1
10
81.207900
20
89.880100
11
85.655600
21
89.451700
0
LINE
8
Layer 1
10
85.655600
20
89.451700
11
85.800900
21
90.969900
0
LINE
8
Layer 1
10
85.800900
20
90.969900
11
81.124100
21
91.420000
0
LINE
8
Layer 1
10
81.124100
20
91.420000
11
82.466200
21
105.355000
0
LINE
8
Layer 1
10
82.466200
20
105.355000
11
87.145500
21
104.904000
0
LINE
8
Layer 1
10
87.145500
20
104.904000
11
87.291200
21
106.422000
0
LINE
8
Layer 1
10
87.291200
20
106.422000
11
82.841400
21
106.852000
0
LINE
8
Layer 1
10
82.841400
20
106.852000
11
83.005700
21
108.567000
0
LINE
8
Layer 1
10
83.005700
20
108.567000
11
81.813000
21
108.684000
0
LINE
8
Layer 1
10
81.813000
20
108.684000
11
82.128700
21
111.967000
0
LINE
8
Layer 1
10
82.128700
20
111.967000
11
83.323000
21
111.852000
0
LINE
8
Layer 1
10
83.323000
20
111.852000
11
83.488300
21
113.570000
0
LINE
8
Layer 1
10
83.488300
20
113.570000
11
89.729300
21
112.968000
0
LINE
8
Layer 1
10
89.729300
20
112.968000
11
89.809400
21
113.790000
0
LINE
8
Layer 1
10
89.809400
20
113.790000
11
89.809400
21
113.790000
0
LINE
8
Layer 1
10
351.888000
20
112.973000
11
353.959000
21
99.128100
0
LINE
8
Layer 1
10
353.959000
20
99.128100
11
340.111000
21
97.059000
0
LINE
8
Layer 1
10
340.111000
20
97.059000
11
338.042000
21
110.905000
0
LINE
8
Layer 1
10
338.042000
20
110.905000
11
351.888000
21
112.973000
0
LINE
8
Layer 1
10
351.888000
20
112.973000
11
351.888000
21
112.973000
0
LINE
8
Layer 1
10
111.824000
20
112.096000
11
125.759000
21
110.755000
0
LINE
8
Layer 1
10
125.759000
20
110.755000
11
124.418000
21
96.819200
0
LINE
8
Layer 1
10
124.418000
20
96.819200
11
110.482000
21
98.161200
0
LINE
8
Layer 1
10
110.482000
20
98.161200
11
111.824000
21
112.096000
0
LINE
8
Layer 1
10
111.824000
20
112.096000
11
111.824000
21
112.096000
0
LINE
8
Layer 1
10
333.046000
20
110.159000
11
335.118000
21
96.312200
0
LINE
8
Layer 1
10
335.118000
20
96.312200
11
321.270000
21
94.242600
0
LINE
8
Layer 1
10
321.270000
20
94.242600
11
319.203000
21
108.090000
0
LINE
8
Layer 1
10
319.203000
20
108.090000
11
333.046000
21
110.159000
0
LINE
8
Layer 1
10
333.046000
20
110.159000
11
333.046000
21
110.159000
0
LINE
8
Layer 1
10
135.525000
20
109.813000
11
149.462000
21
108.472000
0
LINE
8
Layer 1
10
149.462000
20
108.472000
11
148.120000
21
94.536600
0
LINE
8
Layer 1
10
148.120000
20
94.536600
11
134.186000
21
95.879200
0
LINE
8
Layer 1
10
134.186000
20
95.879200
11
135.525000
21
109.813000
0
LINE
8
Layer 1
10
135.525000
20
109.813000
11
135.525000
21
109.813000
0
LINE
8
Layer 1
10
154.489000
20
107.987000
11
168.423000
21
106.648000
0
LINE
8
Layer 1
10
168.423000
20
106.648000
11
167.083000
21
92.711400
0
LINE
8
Layer 1
10
167.083000
20
92.711400
11
153.148000
21
94.053000
0
LINE
8
Layer 1
10
153.148000
20
94.053000
11
154.489000
21
107.987000
0
LINE
8
Layer 1
10
154.489000
20
107.987000
11
154.489000
21
107.987000
0
LINE
8
Layer 1
10
314.206000
20
107.343000
11
316.277000
21
93.496400
0
LINE
8
Layer 1
10
316.277000
20
93.496400
11
302.429000
21
91.426800
0
LINE
8
Layer 1
10
302.429000
20
91.426800
11
300.363000
21
105.272000
0
LINE
8
Layer 1
10
300.363000
20
105.272000
11
314.206000
21
107.343000
0
LINE
8
Layer 1
10
314.206000
20
107.343000
11
314.206000
21
107.343000
0
LINE
8
Layer 1
10
173.451000
20
106.163000
11
187.387000
21
104.821000
0
LINE
8
Layer 1
10
187.387000
20
104.821000
11
186.045000
21
90.885200
0
LINE
8
Layer 1
10
186.045000
20
90.885200
11
172.109000
21
92.227200
0
LINE
8
Layer 1
10
172.109000
20
92.227200
11
173.451000
21
106.163000
0
LINE
8
Layer 1
10
173.451000
20
106.163000
11
173.451000
21
106.163000
0
LINE
8
Layer 1
10
295.365000
20
104.526000
11
297.436000
21
90.680000
0
LINE
8
Layer 1
10
297.436000
20
90.680000
11
283.588000
21
88.610900
0
LINE
8
Layer 1
10
283.588000
20
88.610900
11
281.521000
21
102.457000
0
LINE
8
Layer 1
10
281.521000
20
102.457000
11
295.365000
21
104.526000
0
LINE
8
Layer 1
10
295.365000
20
104.526000
11
295.365000
21
104.526000
0
LINE
8
Layer 1
10
192.412000
20
104.337000
11
206.349000
21
102.994000
0
LINE
8
Layer 1
10
206.349000
20
102.994000
11
205.007000
21
89.059500
0
LINE
8
Layer 1
10
205.007000
20
89.059500
11
191.072000
21
90.401500
0
LINE
8
Layer 1
10
191.072000
20
90.401500
11
192.412000
21
104.337000
0
LINE
8
Layer 1
10
192.412000
20
104.337000
11
192.412000
21
104.337000
0
LINE
8
Layer 1
10
420.647000
20
103.989000
11
422.716000
21
90.142100
0
LINE
8
Layer 1
10
422.716000
20
90.142100
11
408.868000
21
88.072400
0
LINE
8
Layer 1
10
408.868000
20
88.072400
11
406.799000
21
101.920000
0
LINE
8
Layer 1
10
406.799000
20
101.920000
11
420.647000
21
103.989000
0
LINE
8
Layer 1
10
420.647000
20
103.989000
11
420.647000
21
103.989000
0
LINE
8
Layer 1
10
211.376000
20
102.510000
11
225.310000
21
101.169000
0
LINE
8
Layer 1
10
225.310000
20
101.169000
11
223.968000
21
87.233700
0
LINE
8
Layer 1
10
223.968000
20
87.233700
11
210.035000
21
88.575800
0
LINE
8
Layer 1
10
210.035000
20
88.575800
11
211.376000
21
102.510000
0
LINE
8
Layer 1
10
211.376000
20
102.510000
11
211.376000
21
102.510000
0
LINE
8
Layer 1
10
276.526000
20
101.711000
11
278.594000
21
87.864700
0
LINE
8
Layer 1
10
278.594000
20
87.864700
11
264.748000
21
85.795100
0
LINE
8
Layer 1
10
264.748000
20
85.795100
11
262.680000
21
99.641800
0
LINE
8
Layer 1
10
262.680000
20
99.641800
11
276.526000
21
101.711000
0
LINE
8
Layer 1
10
276.526000
20
101.711000
11
276.526000
21
101.711000
0
LINE
8
Layer 1
10
24.668200
20
101.350000
11
38.603800
21
100.008000
0
LINE
8
Layer 1
10
38.603800
20
100.008000
11
37.261800
21
86.073100
0
LINE
8
Layer 1
10
37.261800
20
86.073100
11
23.326200
21
87.414600
0
LINE
8
Layer 1
10
23.326200
20
87.414600
11
24.668200
21
101.350000
0
LINE
8
Layer 1
10
24.668200
20
101.350000
11
24.668200
21
101.350000
0
LINE
8
Layer 1
10
43.629800
20
99.524400
11
57.565900
21
98.182900
0
LINE
8
Layer 1
10
57.565900
20
98.182900
11
56.223900
21
84.248400
0
LINE
8
Layer 1
10
56.223900
20
84.248400
11
42.287800
21
85.588900
0
LINE
8
Layer 1
10
42.287800
20
85.588900
11
43.629800
21
99.524400
0
LINE
8
Layer 1
10
43.629800
20
99.524400
11
43.629800
21
99.524400
0
LINE
8
Layer 1
10
390.030000
20
99.413900
11
390.728000
21
94.765100
0
LINE
8
Layer 1
10
390.728000
20
94.765100
11
392.234000
21
94.990400
0
LINE
8
Layer 1
10
392.234000
20
94.990400
11
391.755000
21
98.184500
0
LINE
8
Layer 1
10
391.755000
20
98.184500
11
398.430000
21
99.182900
0
LINE
8
Layer 1
10
398.430000
20
99.182900
11
398.912000
21
95.988700
0
LINE
8
Layer 1
10
398.912000
20
95.988700
11
399.724000
21
96.110200
0
LINE
8
Layer 1
10
399.724000
20
96.110200
11
400.138000
21
93.340900
0
LINE
8
Layer 1
10
400.138000
20
93.340900
11
399.324000
21
93.217900
0
LINE
8
Layer 1
10
399.324000
20
93.217900
11
400.248000
21
87.017700
0
LINE
8
Layer 1
10
400.248000
20
87.017700
11
398.544000
21
86.761900
0
LINE
8
Layer 1
10
398.544000
20
86.761900
11
398.719000
21
85.574900
0
LINE
8
Layer 1
10
398.719000
20
85.574900
11
395.456000
21
85.087600
0
LINE
8
Layer 1
10
395.456000
20
85.087600
11
395.282000
21
86.274100
0
LINE
8
Layer 1
10
395.282000
20
86.274100
11
393.578000
21
86.019900
0
LINE
8
Layer 1
10
393.578000
20
86.019900
11
392.914000
21
90.440300
0
LINE
8
Layer 1
10
392.914000
20
90.440300
11
391.406000
21
90.214900
0
LINE
8
Layer 1
10
391.406000
20
90.214900
11
392.102000
21
85.567200
0
LINE
8
Layer 1
10
392.102000
20
85.567200
11
378.254000
21
83.497500
0
LINE
8
Layer 1
10
378.254000
20
83.497500
11
377.557000
21
88.146900
0
LINE
8
Layer 1
10
377.557000
20
88.146900
11
376.049000
21
87.921600
0
LINE
8
Layer 1
10
376.049000
20
87.921600
11
376.712000
21
83.499600
0
LINE
8
Layer 1
10
376.712000
20
83.499600
11
375.007000
21
83.244800
0
LINE
8
Layer 1
10
375.007000
20
83.244800
11
375.184000
21
82.058400
0
LINE
8
Layer 1
10
375.184000
20
82.058400
11
371.919000
21
81.569500
0
LINE
8
Layer 1
10
371.919000
20
81.569500
11
371.742000
21
82.757500
0
LINE
8
Layer 1
10
371.742000
20
82.757500
11
370.038000
21
82.502800
0
LINE
8
Layer 1
10
370.038000
20
82.502800
11
369.107000
21
88.702900
0
LINE
8
Layer 1
10
369.107000
20
88.702900
11
368.294000
21
88.580900
0
LINE
8
Layer 1
10
368.294000
20
88.580900
11
367.879000
21
91.350300
0
LINE
8
Layer 1
10
367.879000
20
91.350300
11
368.694000
21
91.471700
0
LINE
8
Layer 1
10
368.694000
20
91.471700
11
368.217000
21
94.666400
0
LINE
8
Layer 1
10
368.217000
20
94.666400
11
374.890000
21
95.664200
0
LINE
8
Layer 1
10
374.890000
20
95.664200
11
375.372000
21
92.470100
0
LINE
8
Layer 1
10
375.372000
20
92.470100
11
376.880000
21
92.695400
0
LINE
8
Layer 1
10
376.880000
20
92.695400
11
376.184000
21
97.343200
0
LINE
8
Layer 1
10
376.184000
20
97.343200
11
390.030000
21
99.413900
0
LINE
8
Layer 1
10
390.030000
20
99.413900
11
390.030000
21
99.413900
0
LINE
8
Layer 1
10
257.686000
20
98.895500
11
259.753000
21
85.048900
0
LINE
8
Layer 1
10
259.753000
20
85.048900
11
245.908000
21
82.980800
0
LINE
8
Layer 1
10
245.908000
20
82.980800
11
243.838000
21
96.826400
0
LINE
8
Layer 1
10
243.838000
20
96.826400
11
257.686000
21
98.895500
0
LINE
8
Layer 1
10
257.686000
20
98.895500
11
257.686000
21
98.895500
0
LINE
8
Layer 1
10
62.592000
20
97.699200
11
76.528000
21
96.356700
0
LINE
8
Layer 1
10
76.528000
20
96.356700
11
75.186000
21
82.421100
0
LINE
8
Layer 1
10
75.186000
20
82.421100
11
61.251500
21
83.763200
0
LINE
8
Layer 1
10
61.251500
20
83.763200
11
62.592000
21
97.699200
0
LINE
8
Layer 1
10
62.592000
20
97.699200
11
62.592000
21
97.699200
0
LINE
8
Layer 1
10
359.415000
20
94.837400
11
361.481000
21
80.992300
0
LINE
8
Layer 1
10
361.481000
20
80.992300
11
347.638000
21
78.921100
0
LINE
8
Layer 1
10
347.638000
20
78.921100
11
345.568000
21
92.768300
0
LINE
8
Layer 1
10
345.568000
20
92.768300
11
359.415000
21
94.837400
0
LINE
8
Layer 1
10
359.415000
20
94.837400
11
359.415000
21
94.837400
0
LINE
8
Layer 1
10
112.367000
20
92.906300
11
126.305000
21
91.564200
0
LINE
8
Layer 1
10
126.305000
20
91.564200
11
124.961000
21
77.628700
0
LINE
8
Layer 1
10
124.961000
20
77.628700
11
111.027000
21
78.970200
0
LINE
8
Layer 1
10
111.027000
20
78.970200
11
112.367000
21
92.906300
0
LINE
8
Layer 1
10
112.367000
20
92.906300
11
112.367000
21
92.906300
0
LINE
8
Layer 1
10
340.574000
20
92.021600
11
342.644000
21
78.174900
0
LINE
8
Layer 1
10
342.644000
20
78.174900
11
328.797000
21
76.107300
0
LINE
8
Layer 1
10
328.797000
20
76.107300
11
326.728000
21
89.951900
0
LINE
8
Layer 1
10
326.728000
20
89.951900
11
340.574000
21
92.021600
0
LINE
8
Layer 1
10
340.574000
20
92.021600
11
340.574000
21
92.021600
0
LINE
8
Layer 1
10
138.441000
20
90.395300
11
152.376000
21
89.053800
0
LINE
8
Layer 1
10
152.376000
20
89.053800
11
151.035000
21
75.117700
0
LINE
8
Layer 1
10
151.035000
20
75.117700
11
137.101000
21
76.461300
0
LINE
8
Layer 1
10
137.101000
20
76.461300
11
138.441000
21
90.395300
0
LINE
8
Layer 1
10
138.441000
20
90.395300
11
138.441000
21
90.395300
0
LINE
8
Layer 1
10
321.733000
20
89.205700
11
323.801000
21
75.359000
0
LINE
8
Layer 1
10
323.801000
20
75.359000
11
309.956000
21
73.290900
0
LINE
8
Layer 1
10
309.956000
20
73.290900
11
307.887000
21
87.138100
0
LINE
8
Layer 1
10
307.887000
20
87.138100
11
321.733000
21
89.205700
0
LINE
8
Layer 1
10
321.733000
20
89.205700
11
321.733000
21
89.205700
0
LINE
8
Layer 1
10
157.404000
20
88.569600
11
171.338000
21
87.227500
0
LINE
8
Layer 1
10
171.338000
20
87.227500
11
169.998000
21
73.292000
0
LINE
8
Layer 1
10
169.998000
20
73.292000
11
156.062000
21
74.634000
0
LINE
8
Layer 1
10
156.062000
20
74.634000
11
157.404000
21
88.569600
0
LINE
8
Layer 1
10
157.404000
20
88.569600
11
157.404000
21
88.569600
0
LINE
8
Layer 1
10
176.365000
20
86.743800
11
190.302000
21
85.401800
0
LINE
8
Layer 1
10
190.302000
20
85.401800
11
188.961000
21
71.467300
0
LINE
8
Layer 1
10
188.961000
20
71.467300
11
175.025000
21
72.808300
0
LINE
8
Layer 1
10
175.025000
20
72.808300
11
176.365000
21
86.743800
0
LINE
8
Layer 1
10
176.365000
20
86.743800
11
176.365000
21
86.743800
0
LINE
8
Layer 1
10
302.892000
20
86.389900
11
304.963000
21
72.544200
0
LINE
8
Layer 1
10
304.963000
20
72.544200
11
291.113000
21
70.475100
0
LINE
8
Layer 1
10
291.113000
20
70.475100
11
289.047000
21
84.320700
0
LINE
8
Layer 1
10
289.047000
20
84.320700
11
302.892000
21
86.389900
0
LINE
8
Layer 1
10
302.892000
20
86.389900
11
302.892000
21
86.389900
0
LINE
8
Layer 1
10
423.462000
20
85.147600
11
425.533000
21
71.302400
0
LINE
8
Layer 1
10
425.533000
20
71.302400
11
411.686000
21
69.232800
0
LINE
8
Layer 1
10
411.686000
20
69.232800
11
409.617000
21
83.077900
0
LINE
8
Layer 1
10
409.617000
20
83.077900
11
423.462000
21
85.147600
0
LINE
8
Layer 1
10
423.462000
20
85.147600
11
423.462000
21
85.147600
0
LINE
8
Layer 1
10
195.327000
20
84.918100
11
209.263000
21
83.575600
0
LINE
8
Layer 1
10
209.263000
20
83.575600
11
207.922000
21
69.641600
0
LINE
8
Layer 1
10
207.922000
20
69.641600
11
193.985000
21
70.982000
0
LINE
8
Layer 1
10
193.985000
20
70.982000
11
195.327000
21
84.918100
0
LINE
8
Layer 1
10
195.327000
20
84.918100
11
195.327000
21
84.918100
0
LINE
8
Layer 1
10
284.051000
20
83.574000
11
286.120000
21
69.728400
0
LINE
8
Layer 1
10
286.120000
20
69.728400
11
272.275000
21
67.659200
0
LINE
8
Layer 1
10
272.275000
20
67.659200
11
270.205000
21
81.504900
0
LINE
8
Layer 1
10
270.205000
20
81.504900
11
284.051000
21
83.574000
0
LINE
8
Layer 1
10
284.051000
20
83.574000
11
284.051000
21
83.574000
0
LINE
8
Layer 1
10
214.291000
20
83.091900
11
228.225000
21
81.750400
0
LINE
8
Layer 1
10
228.225000
20
81.750400
11
226.884000
21
67.813800
0
LINE
8
Layer 1
10
226.884000
20
67.813800
11
212.949000
21
69.157300
0
LINE
8
Layer 1
10
212.949000
20
69.157300
11
214.291000
21
83.091900
0
LINE
8
Layer 1
10
214.291000
20
83.091900
11
214.291000
21
83.091900
0
LINE
8
Layer 1
10
22.842000
20
82.389100
11
36.778100
21
81.047000
0
LINE
8
Layer 1
10
36.778100
20
81.047000
11
35.435000
21
67.111000
0
LINE
8
Layer 1
10
35.435000
20
67.111000
11
21.500500
21
68.453000
0
LINE
8
Layer 1
10
21.500500
20
68.453000
11
22.842000
21
82.389100
0
LINE
8
Layer 1
10
22.842000
20
82.389100
11
22.842000
21
82.389100
0
LINE
8
Layer 1
10
404.624000
20
82.331700
11
406.689000
21
68.486100
0
LINE
8
Layer 1
10
406.689000
20
68.486100
11
392.842000
21
66.417000
0
LINE
8
Layer 1
10
392.842000
20
66.417000
11
390.773000
21
80.263600
0
LINE
8
Layer 1
10
390.773000
20
80.263600
11
404.624000
21
82.331700
0
LINE
8
Layer 1
10
404.624000
20
82.331700
11
404.624000
21
82.331700
0
LINE
8
Layer 1
10
265.210000
20
80.758200
11
267.279000
21
66.911500
0
LINE
8
Layer 1
10
267.279000
20
66.911500
11
253.434000
21
64.843400
0
LINE
8
Layer 1
10
253.434000
20
64.843400
11
251.363000
21
78.690100
0
LINE
8
Layer 1
10
251.363000
20
78.690100
11
265.210000
21
80.758200
0
LINE
8
Layer 1
10
265.210000
20
80.758200
11
265.210000
21
80.758200
0
LINE
8
Layer 1
10
41.804100
20
80.562800
11
55.740200
21
79.221300
0
LINE
8
Layer 1
10
55.740200
20
79.221300
11
54.397600
21
65.285200
0
LINE
8
Layer 1
10
54.397600
20
65.285200
11
40.463600
21
66.627300
0
LINE
8
Layer 1
10
40.463600
20
66.627300
11
41.804100
21
80.562800
0
LINE
8
Layer 1
10
41.804100
20
80.562800
11
41.804100
21
80.562800
0
LINE
8
Layer 1
10
60.767300
20
78.736100
11
74.701800
21
77.395100
0
LINE
8
Layer 1
10
74.701800
20
77.395100
11
73.361300
21
63.459000
0
LINE
8
Layer 1
10
73.361300
20
63.459000
11
59.424200
21
64.801500
0
LINE
8
Layer 1
10
59.424200
20
64.801500
11
60.767300
21
78.736100
0
LINE
8
Layer 1
10
60.767300
20
78.736100
11
60.767300
21
78.736100
0
LINE
8
Layer 1
10
378.713000
20
78.460600
11
380.782000
21
64.614000
0
LINE
8
Layer 1
10
380.782000
20
64.614000
11
366.939000
21
62.544300
0
LINE
8
Layer 1
10
366.939000
20
62.544300
11
364.870000
21
76.391500
0
LINE
8
Layer 1
10
364.870000
20
76.391500
11
378.713000
21
78.460600
0
LINE
8
Layer 1
10
378.713000
20
78.460600
11
378.713000
21
78.460600
0
LINE
8
Layer 1
10
86.156400
20
75.862900
11
88.943800
21
75.596200
0
LINE
8
Layer 1
10
88.943800
20
75.596200
11
88.864200
21
74.775100
0
LINE
8
Layer 1
10
88.864200
20
74.775100
11
92.080100
21
74.464500
0
LINE
8
Layer 1
10
92.080100
20
74.464500
11
91.432000
21
67.745500
0
LINE
8
Layer 1
10
91.432000
20
67.745500
11
88.218300
21
68.055100
0
LINE
8
Layer 1
10
88.218300
20
68.055100
11
88.071500
21
66.536300
0
LINE
8
Layer 1
10
88.071500
20
66.536300
11
92.750300
21
66.086700
0
LINE
8
Layer 1
10
92.750300
20
66.086700
11
91.408300
21
52.152200
0
LINE
8
Layer 1
10
91.408300
20
52.152200
11
86.730000
21
52.601800
0
LINE
8
Layer 1
10
86.730000
20
52.601800
11
86.583200
21
51.083000
0
LINE
8
Layer 1
10
86.583200
20
51.083000
11
89.798000
21
50.775000
0
LINE
8
Layer 1
10
89.798000
20
50.775000
11
89.151600
21
44.055600
0
LINE
8
Layer 1
10
89.151600
20
44.055600
11
85.936800
21
44.365100
0
LINE
8
Layer 1
10
85.936800
20
44.365100
11
85.858200
21
43.544500
0
LINE
8
Layer 1
10
85.858200
20
43.544500
11
83.070800
21
43.812200
0
LINE
8
Layer 1
10
83.070800
20
43.812200
11
83.148800
21
44.632800
0
LINE
8
Layer 1
10
83.148800
20
44.632800
11
76.908900
21
45.234300
0
LINE
8
Layer 1
10
76.908900
20
45.234300
11
77.073200
21
46.951500
0
LINE
8
Layer 1
10
77.073200
20
46.951500
11
75.879000
21
47.066200
0
LINE
8
Layer 1
10
75.879000
20
47.066200
11
76.196300
21
50.350800
0
LINE
8
Layer 1
10
76.196300
20
50.350800
11
77.391000
21
50.237100
0
LINE
8
Layer 1
10
77.391000
20
50.237100
11
77.554900
21
51.952700
0
LINE
8
Layer 1
10
77.554900
20
51.952700
11
82.004200
21
51.524300
0
LINE
8
Layer 1
10
82.004200
20
51.524300
11
82.150400
21
53.042600
0
LINE
8
Layer 1
10
82.150400
20
53.042600
11
77.472200
21
53.492700
0
LINE
8
Layer 1
10
77.472200
20
53.492700
11
78.814200
21
67.428300
0
LINE
8
Layer 1
10
78.814200
20
67.428300
11
83.493000
21
66.977100
0
LINE
8
Layer 1
10
83.493000
20
66.977100
11
83.639200
21
68.495900
0
LINE
8
Layer 1
10
83.639200
20
68.495900
11
79.189900
21
68.924300
0
LINE
8
Layer 1
10
79.189900
20
68.924300
11
79.355300
21
70.641500
0
LINE
8
Layer 1
10
79.355300
20
70.641500
11
78.159500
21
70.756200
0
LINE
8
Layer 1
10
78.159500
20
70.756200
11
78.476800
21
74.041300
0
LINE
8
Layer 1
10
78.476800
20
74.041300
11
79.671000
21
73.925000
0
LINE
8
Layer 1
10
79.671000
20
73.925000
11
79.836400
21
75.643800
0
LINE
8
Layer 1
10
79.836400
20
75.643800
11
86.077300
21
75.041700
0
LINE
8
Layer 1
10
86.077300
20
75.041700
11
86.156400
21
75.862900
0
LINE
8
Layer 1
10
86.156400
20
75.862900
11
86.156400
21
75.862900
0
LINE
8
Layer 1
10
352.811000
20
74.588000
11
354.880000
21
60.742900
0
LINE
8
Layer 1
10
354.880000
20
60.742900
11
341.034000
21
58.673200
0
LINE
8
Layer 1
10
341.034000
20
58.673200
11
338.962000
21
72.520400
0
LINE
8
Layer 1
10
338.962000
20
72.520400
11
352.811000
21
74.588000
0
LINE
8
Layer 1
10
352.811000
20
74.588000
11
352.811000
21
74.588000
0
LINE
8
Layer 1
10
115.281000
20
73.489900
11
129.215000
21
72.149400
0
LINE
8
Layer 1
10
129.215000
20
72.149400
11
128.766000
21
67.469600
0
LINE
8
Layer 1
10
128.766000
20
67.469600
11
130.283000
21
67.324400
0
LINE
8
Layer 1
10
130.283000
20
67.324400
11
130.593000
21
70.537600
0
LINE
8
Layer 1
10
130.593000
20
70.537600
11
137.313000
21
69.892200
0
LINE
8
Layer 1
10
137.313000
20
69.892200
11
137.002000
21
66.677400
0
LINE
8
Layer 1
10
137.002000
20
66.677400
11
137.824000
21
66.597800
0
LINE
8
Layer 1
10
137.824000
20
66.597800
11
137.555000
21
63.811400
0
LINE
8
Layer 1
10
137.555000
20
63.811400
11
136.735000
21
63.890000
0
LINE
8
Layer 1
10
136.735000
20
63.890000
11
136.134000
21
57.648500
0
LINE
8
Layer 1
10
136.134000
20
57.648500
11
134.417000
21
57.814400
0
LINE
8
Layer 1
10
134.417000
20
57.814400
11
134.301000
21
56.620100
0
LINE
8
Layer 1
10
134.301000
20
56.620100
11
131.016000
21
56.935900
0
LINE
8
Layer 1
10
131.016000
20
56.935900
11
131.131000
21
58.130100
0
LINE
8
Layer 1
10
131.131000
20
58.130100
11
129.414000
21
58.295500
0
LINE
8
Layer 1
10
129.414000
20
58.295500
11
129.844000
21
62.745300
0
LINE
8
Layer 1
10
129.844000
20
62.745300
11
128.325000
21
62.890600
0
LINE
8
Layer 1
10
128.325000
20
62.890600
11
127.875000
21
58.211800
0
LINE
8
Layer 1
10
127.875000
20
58.211800
11
113.938000
21
59.555400
0
LINE
8
Layer 1
10
113.938000
20
59.555400
11
114.389000
21
64.232600
0
LINE
8
Layer 1
10
114.389000
20
64.232600
11
112.872000
21
64.379300
0
LINE
8
Layer 1
10
112.872000
20
64.379300
11
112.443000
21
59.929500
0
LINE
8
Layer 1
10
112.443000
20
59.929500
11
110.725000
21
60.095400
0
LINE
8
Layer 1
10
110.725000
20
60.095400
11
110.612000
21
58.900600
0
LINE
8
Layer 1
10
110.612000
20
58.900600
11
107.327000
21
59.216900
0
LINE
8
Layer 1
10
107.327000
20
59.216900
11
107.441000
21
60.410600
0
LINE
8
Layer 1
10
107.441000
20
60.410600
11
105.724000
21
60.578000
0
LINE
8
Layer 1
10
105.724000
20
60.578000
11
106.325000
21
66.817400
0
LINE
8
Layer 1
10
106.325000
20
66.817400
11
105.504000
21
66.897500
0
LINE
8
Layer 1
10
105.504000
20
66.897500
11
105.771000
21
69.683400
0
LINE
8
Layer 1
10
105.771000
20
69.683400
11
106.593000
21
69.604900
0
LINE
8
Layer 1
10
106.593000
20
69.604900
11
106.903000
21
72.819600
0
LINE
8
Layer 1
10
106.903000
20
72.819600
11
113.621000
21
72.173200
0
LINE
8
Layer 1
10
113.621000
20
72.173200
11
113.312000
21
68.957900
0
LINE
8
Layer 1
10
113.312000
20
68.957900
11
114.831000
21
68.811100
0
LINE
8
Layer 1
10
114.831000
20
68.811100
11
115.281000
21
73.489900
0
LINE
8
Layer 1
10
115.281000
20
73.489900
11
115.281000
21
73.489900
0
LINE
8
Layer 1
10
333.970000
20
71.773700
11
336.039000
21
57.927000
0
LINE
8
Layer 1
10
336.039000
20
57.927000
11
322.191000
21
55.857400
0
LINE
8
Layer 1
10
322.191000
20
55.857400
11
320.122000
21
69.704600
0
LINE
8
Layer 1
10
320.122000
20
69.704600
11
333.970000
21
71.773700
0
LINE
8
Layer 1
10
333.970000
20
71.773700
11
333.970000
21
71.773700
0
LINE
8
Layer 1
10
146.097000
20
70.520100
11
160.031000
21
69.178500
0
LINE
8
Layer 1
10
160.031000
20
69.178500
11
158.690000
21
55.244000
0
LINE
8
Layer 1
10
158.690000
20
55.244000
11
144.755000
21
56.584000
0
LINE
8
Layer 1
10
144.755000
20
56.584000
11
146.097000
21
70.520100
0
LINE
8
Layer 1
10
146.097000
20
70.520100
11
146.097000
21
70.520100
0
LINE
8
Layer 1
10
315.128000
20
68.957900
11
317.198000
21
55.110700
0
LINE
8
Layer 1
10
317.198000
20
55.110700
11
303.352000
21
53.042600
0
LINE
8
Layer 1
10
303.352000
20
53.042600
11
301.280000
21
66.888200
0
LINE
8
Layer 1
10
301.280000
20
66.888200
11
315.128000
21
68.957900
0
LINE
8
Layer 1
10
315.128000
20
68.957900
11
315.128000
21
68.957900
0
LINE
8
Layer 1
10
165.059000
20
68.694300
11
178.995000
21
67.352300
0
LINE
8
Layer 1
10
178.995000
20
67.352300
11
177.653000
21
53.417800
0
LINE
8
Layer 1
10
177.653000
20
53.417800
11
163.717000
21
54.758200
0
LINE
8
Layer 1
10
163.717000
20
54.758200
11
165.059000
21
68.694300
0
LINE
8
Layer 1
10
165.059000
20
68.694300
11
165.059000
21
68.694300
0
LINE
8
Layer 1
10
184.021000
20
66.868100
11
197.956000
21
65.526600
0
LINE
8
Layer 1
10
197.956000
20
65.526600
11
196.615000
21
51.591500
0
LINE
8
Layer 1
10
196.615000
20
51.591500
11
182.679000
21
52.933600
0
LINE
8
Layer 1
10
182.679000
20
52.933600
11
184.021000
21
66.868100
0
LINE
8
Layer 1
10
184.021000
20
66.868100
11
184.021000
21
66.868100
0
LINE
8
Layer 1
10
426.278000
20
66.307400
11
428.346000
21
52.460700
0
LINE
8
Layer 1
10
428.346000
20
52.460700
11
414.498000
21
50.393700
0
LINE
8
Layer 1
10
414.498000
20
50.393700
11
412.431000
21
64.238300
0
LINE
8
Layer 1
10
412.431000
20
64.238300
11
426.278000
21
66.307400
0
LINE
8
Layer 1
10
426.278000
20
66.307400
11
426.278000
21
66.307400
0
LINE
8
Layer 1
10
296.288000
20
66.140500
11
298.357000
21
52.294800
0
LINE
8
Layer 1
10
298.357000
20
52.294800
11
284.511000
21
50.224700
0
LINE
8
Layer 1
10
284.511000
20
50.224700
11
282.442000
21
64.072400
0
LINE
8
Layer 1
10
282.442000
20
64.072400
11
296.288000
21
66.140500
0
LINE
8
Layer 1
10
296.288000
20
66.140500
11
296.288000
21
66.140500
0
LINE
8
Layer 1
10
202.983000
20
65.042900
11
216.918000
21
63.701900
0
LINE
8
Layer 1
10
216.918000
20
63.701900
11
215.577000
21
49.764800
0
LINE
8
Layer 1
10
215.577000
20
49.764800
11
201.642000
21
51.107800
0
LINE
8
Layer 1
10
201.642000
20
51.107800
11
202.983000
21
65.042900
0
LINE
8
Layer 1
10
202.983000
20
65.042900
11
202.983000
21
65.042900
0
LINE
8
Layer 1
10
407.437000
20
63.491600
11
409.508000
21
49.645900
0
LINE
8
Layer 1
10
409.508000
20
49.645900
11
395.660000
21
47.575200
0
LINE
8
Layer 1
10
395.660000
20
47.575200
11
393.594000
21
61.422400
0
LINE
8
Layer 1
10
393.594000
20
61.422400
11
407.437000
21
63.491600
0
LINE
8
Layer 1
10
407.437000
20
63.491600
11
407.437000
21
63.491600
0
LINE
8
Layer 1
10
277.447000
20
63.325700
11
279.516000
21
49.480000
0
LINE
8
Layer 1
10
279.516000
20
49.480000
11
265.670000
21
47.409300
0
LINE
8
Layer 1
10
265.670000
20
47.409300
11
263.601000
21
61.256500
0
LINE
8
Layer 1
10
263.601000
20
61.256500
11
277.447000
21
63.325700
0
LINE
8
Layer 1
10
277.447000
20
63.325700
11
277.447000
21
63.325700
0
LINE
8
Layer 1
10
221.946000
20
63.216600
11
235.882000
21
61.875100
0
LINE
8
Layer 1
10
235.882000
20
61.875100
11
234.540000
21
47.939500
0
LINE
8
Layer 1
10
234.540000
20
47.939500
11
220.604000
21
49.281100
0
LINE
8
Layer 1
10
220.604000
20
49.281100
11
221.946000
21
63.216600
0
LINE
8
Layer 1
10
221.946000
20
63.216600
11
221.946000
21
63.216600
0
LINE
8
Layer 1
10
30.496300
20
62.515900
11
44.431900
21
61.172300
0
LINE
8
Layer 1
10
44.431900
20
61.172300
11
43.980700
21
56.494600
0
LINE
8
Layer 1
10
43.980700
20
56.494600
11
45.499500
21
56.347300
0
LINE
8
Layer 1
10
45.499500
20
56.347300
11
45.809000
21
59.562600
0
LINE
8
Layer 1
10
45.809000
20
59.562600
11
52.527500
21
58.915600
0
LINE
8
Layer 1
10
52.527500
20
58.915600
11
52.219000
21
55.700300
0
LINE
8
Layer 1
10
52.219000
20
55.700300
11
53.040100
21
55.620700
0
LINE
8
Layer 1
10
53.040100
20
55.620700
11
52.771900
21
52.833300
0
LINE
8
Layer 1
10
52.771900
20
52.833300
11
51.949700
21
52.914400
0
LINE
8
Layer 1
10
51.949700
20
52.914400
11
51.349800
21
46.671900
0
LINE
8
Layer 1
10
51.349800
20
46.671900
11
49.631000
21
46.837800
0
LINE
8
Layer 1
10
49.631000
20
46.837800
11
49.517800
21
45.643000
0
LINE
8
Layer 1
10
49.517800
20
45.643000
11
46.232300
21
45.960900
0
LINE
8
Layer 1
10
46.232300
20
45.960900
11
46.347500
21
47.153600
0
LINE
8
Layer 1
10
46.347500
20
47.153600
11
44.630300
21
47.320500
0
LINE
8
Layer 1
10
44.630300
20
47.320500
11
45.058700
21
51.768800
0
LINE
8
Layer 1
10
45.058700
20
51.768800
11
43.539900
21
51.915000
0
LINE
8
Layer 1
10
43.539900
20
51.915000
11
43.090300
21
47.236700
0
LINE
8
Layer 1
10
43.090300
20
47.236700
11
29.155800
21
48.578300
0
LINE
8
Layer 1
10
29.155800
20
48.578300
11
29.605400
21
53.257000
0
LINE
8
Layer 1
10
29.605400
20
53.257000
11
28.086600
21
53.402300
0
LINE
8
Layer 1
10
28.086600
20
53.402300
11
27.658200
21
48.954500
0
LINE
8
Layer 1
10
27.658200
20
48.954500
11
25.941500
21
49.118300
0
LINE
8
Layer 1
10
25.941500
20
49.118300
11
25.826300
21
47.925600
0
LINE
8
Layer 1
10
25.826300
20
47.925600
11
22.541200
21
48.241300
0
LINE
8
Layer 1
10
22.541200
20
48.241300
11
22.657500
21
49.435600
0
LINE
8
Layer 1
10
22.657500
20
49.435600
11
20.940300
21
49.599900
0
LINE
8
Layer 1
10
20.940300
20
49.599900
11
21.541800
21
55.842400
0
LINE
8
Layer 1
10
21.541800
20
55.842400
11
20.719600
21
55.920400
0
LINE
8
Layer 1
10
20.719600
20
55.920400
11
20.987300
21
58.707900
0
LINE
8
Layer 1
10
20.987300
20
58.707900
11
21.809500
21
58.629800
0
LINE
8
Layer 1
10
21.809500
20
58.629800
11
22.119000
21
61.844600
0
LINE
8
Layer 1
10
22.119000
20
61.844600
11
28.837500
21
61.196600
0
LINE
8
Layer 1
10
28.837500
20
61.196600
11
28.527900
21
57.981300
0
LINE
8
Layer 1
10
28.527900
20
57.981300
11
30.046200
21
57.836100
0
LINE
8
Layer 1
10
30.046200
20
57.836100
11
30.496300
21
62.515900
0
LINE
8
Layer 1
10
30.496300
20
62.515900
11
30.496300
21
62.515900
0
LINE
8
Layer 1
10
388.596000
20
60.676200
11
390.665000
21
46.830600
0
LINE
8
Layer 1
10
390.665000
20
46.830600
11
376.816000
21
44.759400
0
LINE
8
Layer 1
10
376.816000
20
44.759400
11
374.750000
21
58.606100
0
LINE
8
Layer 1
10
374.750000
20
58.606100
11
388.596000
21
60.676200
0
LINE
8
Layer 1
10
388.596000
20
60.676200
11
388.596000
21
60.676200
0
LINE
8
Layer 1
10
58.940000
20
59.775000
11
72.875600
21
58.431900
0
LINE
8
Layer 1
10
72.875600
20
58.431900
11
71.534000
21
44.497900
0
LINE
8
Layer 1
10
71.534000
20
44.497900
11
57.599500
21
45.839400
0
LINE
8
Layer 1
10
57.599500
20
45.839400
11
58.940000
21
59.775000
0
LINE
8
Layer 1
10
58.940000
20
59.775000
11
58.940000
21
59.775000
0
LINE
8
Layer 1
10
357.982000
20
56.100300
11
360.050000
21
42.255100
0
LINE
8
Layer 1
10
360.050000
20
42.255100
11
346.204000
21
40.184500
0
LINE
8
Layer 1
10
346.204000
20
40.184500
11
344.135000
21
54.030600
0
LINE
8
Layer 1
10
344.135000
20
54.030600
11
357.982000
21
56.100300
0
LINE
8
Layer 1
10
357.982000
20
56.100300
11
357.982000
21
56.100300
0
LINE
8
Layer 1
10
103.975000
20
55.438800
11
117.913000
21
54.096800
0
LINE
8
Layer 1
10
117.913000
20
54.096800
11
116.569000
21
40.160200
0
LINE
8
Layer 1
10
116.569000
20
40.160200
11
102.634000
21
41.501700
0
LINE
8
Layer 1
10
102.634000
20
41.501700
11
103.975000
21
55.438800
0
LINE
8
Layer 1
10
103.975000
20
55.438800
11
103.975000
21
55.438800
0
LINE
8
Layer 1
10
127.679000
20
53.155200
11
141.616000
21
51.813200
0
LINE
8
Layer 1
10
141.616000
20
51.813200
11
140.273000
21
37.879700
0
LINE
8
Layer 1
10
140.273000
20
37.879700
11
126.337000
21
39.221200
0
LINE
8
Layer 1
10
126.337000
20
39.221200
11
127.679000
21
53.155200
0
LINE
8
Layer 1
10
127.679000
20
53.155200
11
127.679000
21
53.155200
0
LINE
8
Layer 1
10
334.430000
20
52.580100
11
336.499000
21
38.735500
0
LINE
8
Layer 1
10
336.499000
20
38.735500
11
322.654000
21
36.664800
0
LINE
8
Layer 1
10
322.654000
20
36.664800
11
320.585000
21
50.511000
0
LINE
8
Layer 1
10
320.585000
20
50.511000
11
334.430000
21
52.580100
0
LINE
8
Layer 1
10
334.430000
20
52.580100
11
334.430000
21
52.580100
0
LINE
8
Layer 1
10
151.380000
20
50.873200
11
165.317000
21
49.531200
0
LINE
8
Layer 1
10
165.317000
20
49.531200
11
163.976000
21
35.596600
0
LINE
8
Layer 1
10
163.976000
20
35.596600
11
150.039000
21
36.938200
0
LINE
8
Layer 1
10
150.039000
20
36.938200
11
151.380000
21
50.873200
0
LINE
8
Layer 1
10
151.380000
20
50.873200
11
151.380000
21
50.873200
0
LINE
8
Layer 1
10
236.342000
20
40.049600
11
250.343000
21
40.049600
0
LINE
8
Layer 1
10
250.343000
20
40.049600
11
250.343000
21
35.350700
0
LINE
8
Layer 1
10
250.343000
20
35.350700
11
289.964000
21
35.350700
0
LINE
8
Layer 1
10
289.964000
20
35.350700
11
289.964000
21
38.578400
0
LINE
8
Layer 1
10
289.964000
20
38.578400
11
296.716000
21
38.578400
0
LINE
8
Layer 1
10
296.716000
20
38.578400
11
296.716000
21
35.350700
0
LINE
8
Layer 1
10
296.716000
20
35.350700
11
297.540000
21
35.350700
0
LINE
8
Layer 1
10
297.540000
20
35.350700
11
297.540000
21
32.548300
0
LINE
8
Layer 1
10
297.540000
20
32.548300
11
296.716000
21
32.548300
0
LINE
8
Layer 1
10
296.716000
20
32.548300
11
296.716000
21
26.281500
0
LINE
8
Layer 1
10
296.716000
20
26.281500
11
294.991000
21
26.281500
0
LINE
8
Layer 1
10
294.991000
20
26.281500
11
294.991000
21
25.080000
0
LINE
8
Layer 1
10
294.991000
20
25.080000
11
291.689000
21
25.080000
0
LINE
8
Layer 1
10
291.689000
20
25.080000
11
291.689000
21
26.281500
0
LINE
8
Layer 1
10
291.689000
20
26.281500
11
289.964000
21
26.281500
0
LINE
8
Layer 1
10
289.964000
20
26.281500
11
289.964000
21
30.749900
0
LINE
8
Layer 1
10
289.964000
20
30.749900
11
250.343000
21
30.749900
0
LINE
8
Layer 1
10
250.343000
20
30.749900
11
250.343000
21
26.051000
0
LINE
8
Layer 1
10
250.343000
20
26.051000
11
236.342000
21
26.051000
0
LINE
8
Layer 1
10
236.342000
20
26.051000
11
236.342000
21
30.749900
0
LINE
8
Layer 1
10
236.342000
20
30.749900
11
196.718000
21
30.749900
0
LINE
8
Layer 1
10
196.718000
20
30.749900
11
196.718000
21
26.281500
0
LINE
8
Layer 1
10
196.718000
20
26.281500
11
194.993000
21
26.281500
0
LINE
8
Layer 1
10
194.993000
20
26.281500
11
194.993000
21
25.080000
0
LINE
8
Layer 1
10
194.993000
20
25.080000
11
191.692000
21
25.080000
0
LINE
8
Layer 1
10
191.692000
20
25.080000
11
191.692000
21
26.281500
0
LINE
8
Layer 1
10
191.692000
20
26.281500
11
189.967000
21
26.281500
0
LINE
8
Layer 1
10
189.967000
20
26.281500
11
189.967000
21
32.548300
0
LINE
8
Layer 1
10
189.967000
20
32.548300
11
189.143000
21
32.548300
0
LINE
8
Layer 1
10
189.143000
20
32.548300
11
189.143000
21
35.350700
0
LINE
8
Layer 1
10
189.143000
20
35.350700
11
189.967000
21
35.350700
0
LINE
8
Layer 1
10
189.967000
20
35.350700
11
189.967000
21
38.578400
0
LINE
8
Layer 1
10
189.967000
20
38.578400
11
196.718000
21
38.578400
0
LINE
8
Layer 1
10
196.718000
20
38.578400
11
196.718000
21
35.350700
0
LINE
8
Layer 1
10
196.718000
20
35.350700
11
236.342000
21
35.350700
0
LINE
8
Layer 1
10
236.342000
20
35.350700
11
236.342000
21
40.049600
0
LINE
8
Layer 1
10
236.342000
20
40.049600
11
236.342000
21
40.049600
0
LINE
8
Layer 1
10
0.793749
20
297.794000
11
-0.793749
21
296.206000
0
LINE
8
Layer 1
10
0.000000
20
298.323000
11
0.000000
21
295.677000
0
LINE
8
Layer 1
10
2.116660
20
295.942000
11
1.058330
21
294.884000
0
LINE
8
Layer 1
10
1.587500
20
296.471000
11
0.529169
21
295.413000
0
LINE
8
Layer 1
10
1.058330
20
297.000000
11
0.000000
21
295.942000
 0 
ENDSEC
 0 
EOF