999
"DXF R12 Output" (www.mydxf.blogspot.com)
 0 
SECTION
 2 
HEADER
 9 
$ACADVER
 1 
AC1009
 9 
$EXTMIN
 10 
 0 
 20 
 0 
 9 
$EXTMAX
 10 
 8.5 
 20 
 11 
 0 
ENDSEC
 0 
SECTION
 2 
ENTITIES
0
LINE
8
Layer 1
10
0.793749
20
297.794000
11
-0.793749
21
296.206000
0
LINE
8
Layer 1
10
0.000000
20
298.323000
11
0.000000
21
295.677000
0
LINE
8
Layer 1
10
2.116660
20
295.942000
11
1.058330
21
294.883670
0
LINE
8
Layer 1
10
1.587500
20
296.471000
11
0.529170
21
295.412670
0
LINE
8
Layer 1
10
1.058330
20
297.000000
11
0.000000
21
295.941670
0
LINE
8
0
10
421.634000
20
178.920000
11
252.804000
21
153.687000
0
LINE
8
0
10
252.804000
20
153.687000
11
19.762600
21
176.127000
0
LINE
8
0
10
19.762600
20
176.127000
11
6.527240
21
38.633200
0
LINE
8
0
10
6.527240
20
38.633200
11
184.204000
21
21.505500
0
LINE
8
0
10
184.204000
20
21.505500
11
302.691000
21
21.505500
0
LINE
8
0
10
302.691000
20
21.505500
11
442.047000
21
42.329600
0
LINE
8
0
10
442.047000
20
42.329600
11
421.634000
21
178.920000
0
LINE
8
0
10
421.634000
20
178.920000
11
421.634000
21
178.920000
0
LINE
8
0
10
413.620000
20
168.092000
11
416.437000
21
149.252000
0
LINE
8
0
10
416.437000
20
149.252000
11
378.755000
21
143.619000
0
LINE
8
0
10
378.755000
20
143.619000
11
375.938000
21
162.460000
0
LINE
8
0
10
375.938000
20
162.460000
11
413.620000
21
168.092000
0
LINE
8
0
10
413.620000
20
168.092000
11
413.620000
21
168.092000
0
LINE
8
0
10
28.330500
20
165.733000
11
104.178000
21
158.430000
0
LINE
8
0
10
104.178000
20
158.430000
11
102.352000
21
139.468000
0
LINE
8
0
10
102.352000
20
139.468000
11
26.504800
21
146.771000
0
LINE
8
0
10
26.504800
20
146.771000
11
28.330500
21
165.733000
0
LINE
8
0
10
28.330500
20
165.733000
11
28.330500
21
165.733000
0
LINE
8
0
10
371.229000
20
161.756000
11
374.046000
21
142.916000
0
LINE
8
0
10
374.046000
20
142.916000
11
298.680000
21
131.653000
0
LINE
8
0
10
298.680000
20
131.653000
11
295.865000
21
150.493000
0
LINE
8
0
10
295.865000
20
150.493000
11
371.229000
21
161.756000
0
LINE
8
0
10
371.229000
20
161.756000
11
371.229000
21
161.756000
0
LINE
8
0
10
108.920000
20
157.974000
11
127.882000
21
156.147000
0
LINE
8
0
10
127.882000
20
156.147000
11
126.056000
21
137.185000
0
LINE
8
0
10
126.056000
20
137.185000
11
107.094000
21
139.011000
0
LINE
8
0
10
107.094000
20
139.011000
11
108.920000
21
157.974000
0
LINE
8
0
10
108.920000
20
157.974000
11
108.920000
21
157.974000
0
LINE
8
0
10
132.623000
20
155.690000
11
208.472000
21
148.387000
0
LINE
8
0
10
208.472000
20
148.387000
11
206.646000
21
129.424000
0
LINE
8
0
10
206.646000
20
129.424000
11
130.797000
21
136.727000
0
LINE
8
0
10
130.797000
20
136.727000
11
132.623000
21
155.690000
0
LINE
8
0
10
132.623000
20
155.690000
11
132.623000
21
155.690000
0
LINE
8
0
10
291.155000
20
149.788000
11
293.970000
21
130.948000
0
LINE
8
0
10
293.970000
20
130.948000
11
256.290000
21
125.317000
0
LINE
8
0
10
256.290000
20
125.317000
11
253.475000
21
144.157000
0
LINE
8
0
10
253.475000
20
144.157000
11
291.155000
21
149.788000
0
LINE
8
0
10
291.155000
20
149.788000
11
291.155000
21
149.788000
0
LINE
8
0
10
213.263000
20
147.927000
11
251.137000
21
144.279000
0
LINE
8
0
10
251.137000
20
144.279000
11
249.312000
21
125.317000
0
LINE
8
0
10
249.312000
20
125.317000
11
211.387000
21
128.969000
0
LINE
8
0
10
211.387000
20
128.969000
11
213.263000
21
147.927000
0
LINE
8
0
10
213.263000
20
147.927000
11
213.263000
21
147.927000
0
LINE
8
0
10
417.139000
20
144.539000
11
431.218000
21
50.337300
0
LINE
8
0
10
431.218000
20
50.337300
11
374.694000
21
41.889300
0
LINE
8
0
10
374.694000
20
41.889300
11
371.879000
21
60.730000
0
LINE
8
0
10
371.879000
20
60.730000
11
362.491000
21
59.327000
0
LINE
8
0
10
362.491000
20
59.327000
11
365.275000
21
40.482100
0
LINE
8
0
10
365.275000
20
40.482100
11
318.174000
21
33.442300
0
LINE
8
0
10
318.174000
20
33.442300
11
315.359000
21
52.282900
0
LINE
8
0
10
315.359000
20
52.282900
11
263.546000
21
44.539800
0
LINE
8
0
10
263.546000
20
44.539800
11
260.731000
21
63.380400
0
LINE
8
0
10
260.731000
20
63.380400
11
251.309000
21
61.973300
0
LINE
8
0
10
251.309000
20
61.973300
11
248.494000
21
80.813500
0
LINE
8
0
10
248.494000
20
80.813500
11
243.783000
21
80.109600
0
LINE
8
0
10
243.783000
20
80.109600
11
240.967000
21
98.950300
0
LINE
8
0
10
240.967000
20
98.950300
11
250.389000
21
100.359000
0
LINE
8
0
10
250.389000
20
100.359000
11
247.574000
21
119.198000
0
LINE
8
0
10
247.574000
20
119.198000
11
417.139000
21
144.539000
0
LINE
8
0
10
417.139000
20
144.539000
11
417.139000
21
144.539000
0
LINE
8
0
10
26.048500
20
142.030000
11
101.898000
21
134.726000
0
LINE
8
0
10
101.898000
20
134.726000
11
92.767900
21
39.916300
0
LINE
8
0
10
92.767900
20
39.916300
11
16.919400
21
47.219700
0
LINE
8
0
10
16.919400
20
47.219700
11
26.048500
21
142.030000
0
LINE
8
0
10
26.048500
20
142.030000
11
26.048500
21
142.030000
0
LINE
8
0
10
106.631000
20
134.200000
11
239.373000
21
121.488000
0
LINE
8
0
10
239.373000
20
121.488000
11
237.547000
21
102.526000
0
LINE
8
0
10
237.547000
20
102.526000
11
228.066000
21
103.440000
0
LINE
8
0
10
228.066000
20
103.440000
11
226.240000
21
84.477800
0
LINE
8
0
10
226.240000
20
84.477800
11
230.980000
21
84.021000
0
LINE
8
0
10
230.980000
20
84.021000
11
229.155000
21
65.058900
0
LINE
8
0
10
229.155000
20
65.058900
11
238.638000
21
64.145800
0
LINE
8
0
10
238.638000
20
64.145800
11
236.812000
21
45.183600
0
LINE
8
0
10
236.812000
20
45.183600
11
170.443000
21
51.573900
0
LINE
8
0
10
170.443000
20
51.573900
11
168.617000
21
32.611800
0
LINE
8
0
10
168.617000
20
32.611800
11
97.508100
21
39.459500
0
LINE
8
0
10
97.508100
20
39.459500
11
106.631000
21
134.200000
0
LINE
8
0
10
106.631000
20
134.200000
11
106.631000
21
134.200000
0
LINE
8
0
10
183.810000
20
42.574500
11
302.871000
21
42.574500
0
LINE
8
0
10
302.871000
20
42.574500
11
302.871000
21
23.524500
0
LINE
8
0
10
302.871000
20
23.524500
11
183.801000
21
23.516300
0
LINE
8
0
10
183.801000
20
23.516300
11
183.810000
21
42.574500
0
LINE
8
0
10
183.810000
20
42.574500
11
183.810000
21
42.574500
 0 
ENDSEC
 0 
EOF